<svg xmlns="http://www.w3.org/2000/svg" viewBox="0 0 288.1 368" enable-background="new 0 0 288.1 368" width="1920" height="2452">
 <defs>
  <radialGradient id="a" cx="140.83" cy="355" r="186.23" gradientUnits="userSpaceOnUse">
   <stop stop-color="#e1f4fd"/>
   <stop offset="0.09" stop-color="#d9f2fd"/>
   <stop offset="0.24" stop-color="#c4ebfb"/>
   <stop offset="0.41" stop-color="#a1e0f9"/>
   <stop offset="0.62" stop-color="#70d1f6"/>
   <stop offset="0.84" stop-color="#32bef2"/>
   <stop offset="1" stop-color="#00aeef"/>
  </radialGradient>
  <clipPath id="b">
   <rect x="143.1" y="232.2" width="12.8" height="12" fill="none"/>
  </clipPath>
  <clipPath id="c">
   <polygon points="143.1 244.2 155.9 244.2 155.9 232.2 143.1 232.2 143.1 244.2 143.1 244.2" fill="none"/>
  </clipPath>
  <clipPath id="d">
   <rect x="237.7" y="339.3" width="12.8" height="12" fill="none"/>
  </clipPath>
  <clipPath id="e">
   <polygon points="237.7 351.4 250.5 351.4 250.5 339.4 237.7 339.4 237.7 351.4 237.7 351.4" fill="none"/>
  </clipPath>
 </defs>
 <g opacity="0.5">
  <path d="M212.5,30.5c27.3,95.2,74.8,162.8,54.3,228.5-24.3,78.3-93.1,96-125.3,96s-101-17.7-125.3-96c-20.5-65.7,27-133.3,54.3-228.5,0,12.3,31.8,22.3,71,22.3S212.5,42.8,212.5,30.5Z" fill="url(#a)"/>
 </g>
 <line x1="141.5" y1="355" x2="271.8" y2="355" fill="none" stroke="#231f20" stroke-miterlimit="10"/>
 <line x1="141.5" y1="258.5" x2="266.8" y2="258.5" fill="none" stroke="#231f20" stroke-miterlimit="10"/>
 <line x1="266.8" y1="258.5" x2="141.5" y2="221.5" fill="none" stroke="#231f20" stroke-miterlimit="10"/>
 <line x1="227.5" y1="365.9" x2="279.5" y2="223.7" fill="none" stroke="#231f20" stroke-miterlimit="10"/>
 <path d="M239.4,333.3c12.1,4.4,17.1,13.7,17.1,21.7" fill="none" stroke="#231f20" stroke-miterlimit="10"/>
 <path d="M141.5,246.8c17,1.7,21.3-13.5,23.5-18.4" fill="none" stroke="#231f20" stroke-miterlimit="10"/>
 <path d="M181.5,344.2c37-12.6,57.6-39.3,64.7-51.3" fill="none" stroke="#231f20" stroke-miterlimit="10"/>
 <polygon points="248 294.7 248 289.8 243.7 292.3 248 294.7" fill="#231f20"/>
 <g clip-path="url(#c)">
  <path d="M149.8,241.1a1.2,1.2,0,0,0,.2.7l.6.2h.3v.2h-3.4V242h.4l.6-.2a1.2,1.2,0,0,0,.2-.7,5.6,5.6,0,0,1-2-.3,3.5,3.5,0,0,1-1.1-1,2.6,2.6,0,0,1-.4-1.5,3.2,3.2,0,0,1,.3-1.4,1.8,1.8,0,0,1,.7-.8l.8-.4a4.3,4.3,0,0,1,1.7-.3,1.4,1.4,0,0,0-.2-.7l-.6-.2h-.4v-.2h3.4v.2h-.3l-.6.2a1.4,1.4,0,0,0-.2.7,7.7,7.7,0,0,1,2,.4,2.1,2.1,0,0,1,1.1,1,2.4,2.4,0,0,1,.4,1.5,2.3,2.3,0,0,1-.4,1.4,1.8,1.8,0,0,1-1.1,1A4,4,0,0,1,149.8,241.1Zm-1.1-.3v-5a2.3,2.3,0,0,0-1.3.3,1.8,1.8,0,0,0-.8.9,2.8,2.8,0,0,0-.3,1.3,2.4,2.4,0,0,0,.6,1.7C147.2,240.5,147.8,240.7,148.7,240.8Zm1.1,0a1.9,1.9,0,0,0,1.7-.7,2.4,2.4,0,0,0,.6-1.8,2.5,2.5,0,0,0-.6-1.9,2.2,2.2,0,0,0-1.7-.6Z" fill="#010101"/>
 </g>
 <path d="M132.4,277.9l2.6-3.4.8-.9h-3.2v-.8H137v.7l-2.6,3.3-.7.9h3.4v.8h-4.7Z" fill="#231f20"/>
 <path d="M177.5,260.9l.9,1.2a3.1,3.1,0,0,1,.5,1h.1l.6-1,.8-1.2h1.1l-2,2.8,2.1,3h-1.2l-.9-1.3-.6-1h0l-.6,1-.9,1.3h-1.1l2-3-1.9-2.8Z" fill="#231f20"/>
 <path d="M213.2,320.1a2.9,2.9,0,0,0,1.4.4c.8,0,1.2-.4,1.2-.9s-.3-.7-1.1-1-1.6-1-1.6-1.7a1.8,1.8,0,0,1,2-1.7,3.3,3.3,0,0,1,1.5.4l-.3.8a1.7,1.7,0,0,0-1.2-.4.9.9,0,0,0-1,.8c0,.5.4.7,1.1,1s1.6.9,1.6,1.7-.8,1.8-2.2,1.8a3.8,3.8,0,0,1-1.6-.4Z" fill="#231f20"/>
 <g clip-path="url(#e)">
  <path d="M244.4,348.3c0,.3,0,.5.2.6a.6.6,0,0,0,.6.3h.3v.2h-3.4v-.2h.3l.7-.2a1.4,1.4,0,0,0,.2-.7,7.7,7.7,0,0,1-2-.4,2.4,2.4,0,0,1-1.1-.9,3,3,0,0,1-.5-1.6,2,2,0,0,1,.4-1.3,1.6,1.6,0,0,1,.6-.8l.9-.5,1.7-.2a1,1,0,0,0-.2-.7.8.8,0,0,0-.7-.2h-.3v-.2h3.4v.2h-.3c-.3,0-.5,0-.6.2a1,1,0,0,0-.2.7,5.4,5.4,0,0,1,2,.4,3.1,3.1,0,0,1,1.1.9,2.8,2.8,0,0,1,.4,1.5,2.4,2.4,0,0,1-.4,1.5,2.7,2.7,0,0,1-1.1,1A8.8,8.8,0,0,1,244.4,348.3Zm-1.1-.4v-5a2.9,2.9,0,0,0-1.4.3,2.2,2.2,0,0,0-.7.9,3.1,3.1,0,0,0-.3,1.3,2.4,2.4,0,0,0,.6,1.8C241.8,347.7,242.4,347.9,243.3,347.9Zm1.1,0a2.4,2.4,0,0,0,1.7-.6,2.5,2.5,0,0,0,.6-1.9,2.4,2.4,0,0,0-.6-1.8,2.1,2.1,0,0,0-1.7-.7Z" fill="#010101"/>
 </g>
 <path d="M228.9,230.2l1.4.5" fill="none" stroke="#2e3192" stroke-miterlimit="10"/>
 <path d="M233.1,231.6c20.9,7,33.7,16.5,33.7,26.9,0,12.3-17.9,23.3-46,30.5" stroke-dasharray="2.9272 2.9272" fill="none" stroke="#2e3192" stroke-miterlimit="10"/>
 <path d="M219.4,289.4l-1.5.4" fill="none" stroke="#2e3192" stroke-miterlimit="10"/>
 <line x1="141.5" y1="221.5" x2="233.2" y2="285.4" stroke-dasharray="3" fill="none" stroke="#939598" stroke-miterlimit="10"/>
 <path d="M205.1,229.7h2a3.5,3.5,0,0,1,2.3.6,2.2,2.2,0,0,1,.7,1.6,2.1,2.1,0,0,1-1.6,2h0c.7.2,1,.7,1.2,1.6l.6,2.2h-1a8.3,8.3,0,0,1-.6-1.9c-.2-1.1-.6-1.6-1.6-1.6h-1v3.5h-1Zm1,3.7h1.1c1.1,0,1.8-.6,1.8-1.5s-.7-1.5-1.8-1.5h-1.1Z" fill="#231f20"/>
 <path d="M210.8,239l.7-.7c1-.9,1.5-1.4,1.5-2.1a.8.8,0,0,0-.9-.8,1.5,1.5,0,0,0-1,.4l-.2-.6a2.6,2.6,0,0,1,1.4-.5c1.2,0,1.6.7,1.6,1.4s-.7,1.5-1.6,2.3l-.3.4h2v.7h-3.2Z" fill="#231f20"/>
 <path d="M222.4,268.8l2-.2a3.4,3.4,0,0,1,2.4.7,1.9,1.9,0,0,1,.6,1.5,2.2,2.2,0,0,1-1.5,2.1h0a2.1,2.1,0,0,1,1.2,1.6,8.8,8.8,0,0,0,.6,2.3h-1.1a18.2,18.2,0,0,1-.5-2c-.3-1.1-.7-1.5-1.7-1.6h-.9v3.6h-1.1Zm1.1,3.7h1a1.6,1.6,0,0,0,1.8-1.6c0-1-.7-1.5-1.8-1.5h-1Z" fill="#939598"/>
 <path d="M229.2,278.5v-3.9h0l-.8.4-.2-.6,1.1-.6h.8v4.7Z" fill="#939598"/>
 <path d="M141.5,355c32.2,0,101-17.7,125.3-96,20.5-65.7-27-133.3-54.3-228.5" fill="none" stroke="#2e3192" stroke-miterlimit="10"/>
 <path d="M141.5,355c-32.2,0-101-17.7-125.3-96-20.5-65.7,27-133.3,54.3-228.5" fill="none" stroke="#2e3192" stroke-miterlimit="10"/>
 <ellipse cx="141.5" cy="30.5" rx="71" ry="22.3" opacity="0.5" fill="#00aeef"/>
 <ellipse cx="141.5" cy="30.5" rx="71" ry="22.3" stroke-dasharray="3.01431 3.01431" fill="none" stroke="#2e3192" stroke-miterlimit="10"/>
 <line x1="141.5" y1="355" x2="141.5" y2="30.5" fill="none" stroke="#231f20" stroke-miterlimit="10"/>
</svg>
